<svg xmlns="http://www.w3.org/2000/svg" width="96" height="96" viewBox="0 0 96 96">
    <g fill="none" fill-rule="evenodd">
        <g>
            <g>
                <path fill="#1D1D1D" d="M74.752 64.706l13.93 13.474-41.365-1.768L59.47 64.694c4.266-4.113 11.023-4.108 15.283.012z" transform="translate(-116 -274) translate(119 277) rotate(-45 68 67.75)"/>
                <path stroke="#1D1D1D" stroke-width="5" d="M12 0h66c6.627 0 12 5.373 12 12v44.656c0 3.401-1.444 6.643-3.972 8.92l-10.715 9.642c-.209.188-.41.383-.605.585l-10.17 10.532C62.278 88.677 59.161 90 55.906 90H12C5.373 90 0 84.627 0 78V12C0 5.373 5.373 0 12 0z" transform="translate(-116 -274) translate(119 277)"/>
                <path stroke="#1D1D1D" stroke-linecap="square" stroke-width="5" d="M24.5 21.5L66.5 21.5M24.5 39.5L66.5 39.5M24.5 58.5L44.5 58.5" transform="translate(-116 -274) translate(119 277)"/>
            </g>
        </g>
    </g>
</svg>
